<?xml version="1.0" standalone="no"?>
<!DOCTYPE svg PUBLIC "-//W3C//DTD SVG 20010904//EN"
 "http://www.w3.org/TR/2001/REC-SVG-20010904/DTD/svg10.dtd">
<svg version="1.0" xmlns="http://www.w3.org/2000/svg"
 width="1024.000000pt" height="1024.000000pt" viewBox="0 0 1024.000000 1024.000000"
 preserveAspectRatio="xMidYMid meet">
<metadata>
Created by potrace 1.14, written by Peter Selinger 2001-2017
</metadata>
<g transform="translate(0.000000,1024.000000) scale(0.100000,-0.100000)"
fill="#000000" stroke="none">
<path d="M4863 10219 c-387 -18 -780 -84 -1163 -194 -1677 -484 -3001 -1808
-3485 -3485 -267 -929 -267 -1911 0 -2840 484 -1677 1808 -3001 3485 -3485
929 -267 1911 -267 2840 0 1677 484 3001 1808 3485 3485 267 929 267 1911 0
2840 -484 1677 -1808 3001 -3485 3485 -397 114 -763 174 -1190 195 -224 11
-249 11 -487 -1z m647 -320 c1911 -147 3571 -1457 4168 -3289 163 -499 235
-956 235 -1490 0 -351 -28 -633 -94 -958 -379 -1876 -1865 -3362 -3741 -3741
-325 -66 -607 -94 -958 -94 -351 0 -633 28 -958 94 -1876 379 -3362 1865
-3741 3741 -66 325 -94 607 -94 958 0 260 12 436 44 668 250 1804 1523 3324
3259 3890 610 199 1228 272 1880 221z"/>
<path d="M3920 9496 c-375 -79 -659 -353 -762 -734 -30 -113 -30 -333 0 -455
90 -362 369 -642 724 -727 524 -125 1041 187 1184 715 15 57 19 103 18 245 0
162 -2 182 -28 265 -100 326 -348 574 -671 671 -78 23 -112 27 -245 30 -104 2
-176 -1 -220 -10z m408 -329 c105 -37 176 -82 257 -162 127 -127 185 -259 193
-436 8 -193 -48 -352 -173 -487 -263 -283 -693 -293 -964 -21 -361 361 -205
965 289 1116 65 20 92 23 200 20 104 -3 138 -8 198 -30z"/>
<path d="M5931 9495 c-103 -23 -160 -44 -261 -97 -232 -120 -406 -332 -486
-593 -26 -83 -28 -103 -28 -265 -1 -142 3 -188 18 -245 75 -277 251 -499 499
-630 564 -297 1253 16 1409 642 30 122 30 342 0 455 -52 192 -123 318 -257
454 -140 142 -269 217 -460 270 -84 23 -348 29 -434 9z m349 -310 c117 -28
225 -89 315 -180 136 -135 198 -282 198 -470 1 -160 -45 -294 -143 -416 -133
-165 -315 -253 -525 -252 -188 0 -335 62 -470 198 -141 140 -201 297 -192 500
3 91 10 124 34 191 83 221 244 366 478 429 68 18 225 18 305 0z"/>
<path d="M2126 8555 c-97 -20 -160 -42 -251 -87 -261 -130 -445 -364 -517
-655 -28 -117 -30 -313 -4 -428 109 -476 526 -795 1006 -772 188 10 341 60
498 164 513 340 585 1075 147 1509 -122 121 -274 209 -440 254 -103 29 -336
36 -439 15z m327 -311 c40 -9 110 -34 157 -56 70 -33 100 -56 170 -127 137
-137 200 -287 200 -470 0 -110 -20 -195 -72 -300 -77 -160 -247 -298 -428
-347 -86 -23 -243 -24 -330 0 -103 27 -203 82 -281 154 -151 140 -221 297
-220 498 0 259 140 479 376 595 137 67 283 85 428 53z"/>
<path d="M7740 8555 c-428 -86 -750 -440 -788 -869 -33 -367 129 -709 430
-909 157 -104 310 -154 498 -164 480 -23 897 296 1006 772 26 115 24 311 -4
428 -95 386 -390 669 -774 742 -96 18 -278 18 -368 0z m395 -328 c163 -53 310
-180 385 -332 54 -109 74 -190 73 -305 0 -112 -20 -198 -68 -295 -144 -291
-483 -439 -790 -345 -171 53 -328 185 -403 340 -23 47 -49 112 -57 145 -19 76
-19 232 0 314 56 235 246 426 489 492 102 27 261 21 371 -14z"/>
<path d="M3653 7249 c-230 -39 -426 -208 -511 -441 l-27 -73 -3 -1030 c-3
-1157 -6 -1105 71 -1258 57 -114 170 -227 284 -284 156 -78 53 -74 1673 -71
l1445 3 82 32 c250 96 405 297 434 561 6 63 9 434 7 1052 -4 860 -6 961 -21
1018 -61 225 -226 398 -452 474 l-70 23 -1430 1 c-786 1 -1453 -2 -1482 -7z
m2939 -337 c81 -40 148 -110 180 -190 l23 -57 3 -935 c2 -601 -1 -963 -7
-1012 -18 -135 -84 -228 -199 -285 l-57 -28 -1430 0 -1430 0 -56 28 c-67 32
-141 108 -172 174 l-22 48 0 1015 0 1015 26 55 c47 101 126 169 228 196 36 10
358 12 1446 11 l1400 -2 67 -33z"/>
<path d="M3845 3876 c-150 -47 -257 -166 -285 -315 -6 -34 -10 -416 -10 -1040
0 -1076 -2 -1045 57 -1153 35 -64 110 -133 181 -166 l57 -27 1260 0 1260 0 67
33 c84 41 167 128 200 209 l23 58 3 1035 c3 1028 2 1035 -18 1101 -39 121
-140 222 -259 259 -62 20 -94 20 -1280 19 -953 0 -1225 -3 -1256 -13z m2476
-325 l29 -29 0 -990 0 -990 -26 -31 -26 -31 -1188 0 -1189 0 -28 24 -28 24 -3
984 c-2 725 1 990 9 1011 25 61 -56 57 1237 57 l1184 0 29 -29z"/>
</g>
</svg>
