<svg xmlns="http://www.w3.org/2000/svg" xmlns:xlink="http://www.w3.org/1999/xlink" width="1024" zoomAndPan="magnify" viewBox="0 0 768 767.999994" height="1024" preserveAspectRatio="xMidYMid meet" version="1.0"><defs><clipPath id="2c5d2d73f9"><path d="M 237.4375 237.4375 L 530.5625 237.4375 L 530.5625 530.5625 L 237.4375 530.5625 Z M 237.4375 237.4375 " clip-rule="nonzero"/></clipPath><clipPath id="9814fb846e"><path d="M 384 237.4375 C 303.054688 237.4375 237.4375 303.054688 237.4375 384 C 237.4375 464.945312 303.054688 530.5625 384 530.5625 C 464.945312 530.5625 530.5625 464.945312 530.5625 384 C 530.5625 303.054688 464.945312 237.4375 384 237.4375 Z M 384 237.4375 " clip-rule="nonzero"/></clipPath><clipPath id="dc09ae83a0"><path d="M 528 296 L 544.226562 296 L 544.226562 307 L 528 307 Z M 528 296 " clip-rule="nonzero"/></clipPath><clipPath id="8920bbefe9"><path d="M 456 224.027344 L 467 224.027344 L 467 240 L 456 240 Z M 456 224.027344 " clip-rule="nonzero"/></clipPath><clipPath id="aad9a77a97"><path d="M 224.027344 353 L 308 353 L 308 544.226562 L 224.027344 544.226562 Z M 224.027344 353 " clip-rule="nonzero"/></clipPath></defs><path fill="#f2f7fd" d="M 69.417969 220.480469 C 47.496094 235.402344 41.816406 265.273438 56.726562 287.195312 L 143.015625 413.992188 L 85.613281 209.457031 Z M 69.417969 220.480469 " fill-opacity="1" fill-rule="nonzero"/><path fill="#f2f7fd" d="M 347.335938 31.359375 L 312.914062 54.78125 L 399.816406 30.398438 C 384.160156 20.613281 363.578125 20.300781 347.335938 31.359375 Z M 347.335938 31.359375 " fill-opacity="1" fill-rule="nonzero"/><path fill="#f2f7fd" d="M 420.644531 736.621094 L 455.066406 713.199219 L 368.167969 737.582031 C 383.824219 747.367188 404.402344 747.679688 420.644531 736.621094 Z M 420.644531 736.621094 " fill-opacity="1" fill-rule="nonzero"/><path fill="#f2f7fd" d="M 698.5625 547.5 C 720.484375 532.578125 726.164062 502.707031 711.253906 480.785156 L 624.964844 353.988281 L 682.367188 558.535156 Z M 698.5625 547.5 " fill-opacity="1" fill-rule="nonzero"/><path fill="#f2f7fd" d="M 104.546875 188.0625 L 143.867188 328.160156 L 143.867188 127.15625 L 137.816406 128.847656 C 112.28125 136.015625 97.390625 162.523438 104.546875 188.0625 Z M 104.546875 188.0625 " fill-opacity="1" fill-rule="nonzero"/><path fill="#f2f7fd" d="M 461.488281 38.023438 L 426.589844 47.820312 L 505.707031 47.820312 C 493.929688 37.746094 477.53125 33.53125 461.488281 38.023438 Z M 461.488281 38.023438 " fill-opacity="1" fill-rule="nonzero"/><path fill="#f2f7fd" d="M 306.492188 729.960938 L 341.394531 720.160156 L 262.273438 720.160156 C 274.050781 730.234375 290.449219 734.449219 306.492188 729.960938 Z M 306.492188 729.960938 " fill-opacity="1" fill-rule="nonzero"/><path fill="#f2f7fd" d="M 624.113281 640.824219 L 630.164062 639.132812 C 655.703125 631.964844 670.589844 605.457031 663.433594 579.917969 L 624.113281 439.808594 Z M 624.113281 640.824219 " fill-opacity="1" fill-rule="nonzero"/><path fill="#f2f7fd" d="M 167.878906 119.855469 L 167.878906 648.125 C 167.878906 674.648438 189.382812 696.148438 215.90625 696.148438 L 552.078125 696.148438 C 578.597656 696.148438 600.101562 674.648438 600.101562 648.125 L 600.101562 119.855469 C 600.101562 93.335938 578.597656 71.832031 552.078125 71.832031 L 215.90625 71.832031 C 189.382812 71.832031 167.878906 93.335938 167.878906 119.855469 Z M 227.910156 660.132812 L 203.898438 660.132812 L 203.898438 636.121094 L 227.910156 636.121094 Z M 540.070312 107.847656 L 564.082031 107.847656 L 564.082031 131.863281 L 540.070312 131.863281 Z M 540.070312 636.121094 L 564.082031 636.121094 L 564.082031 660.132812 L 540.070312 660.132812 Z M 383.992188 251.921875 C 452.882812 251.921875 509.382812 304.679688 515.457031 371.984375 L 430.335938 371.984375 C 424.929688 351.332031 406.320312 335.964844 383.992188 335.964844 C 361.660156 335.964844 343.050781 351.332031 337.648438 371.984375 L 252.523438 371.984375 C 258.597656 304.679688 315.097656 251.921875 383.992188 251.921875 Z M 408.003906 383.992188 C 408.003906 397.195312 397.195312 408.003906 383.992188 408.003906 C 370.785156 408.003906 359.976562 397.195312 359.976562 383.992188 C 359.976562 370.785156 370.785156 359.976562 383.992188 359.976562 C 397.195312 359.976562 408.003906 370.785156 408.003906 383.992188 Z M 337.648438 395.996094 C 343.050781 416.648438 361.660156 432.015625 383.992188 432.015625 C 406.320312 432.015625 424.929688 416.648438 430.335938 395.996094 L 515.457031 395.996094 C 509.382812 463.304688 452.882812 516.058594 383.992188 516.058594 C 315.097656 516.058594 258.597656 463.304688 252.523438 395.996094 Z M 227.910156 131.863281 L 203.898438 131.863281 L 203.898438 107.847656 L 227.910156 107.847656 Z M 227.910156 131.863281 " fill-opacity="1" fill-rule="nonzero"/><g clip-path="url(#2c5d2d73f9)"><g clip-path="url(#9814fb846e)"><path fill="#f2f7fd" d="M 237.4375 237.4375 L 530.5625 237.4375 L 530.5625 530.5625 L 237.4375 530.5625 Z M 237.4375 237.4375 " fill-opacity="1" fill-rule="nonzero"/></g></g><path fill="#000000" d="M 492.582031 378.964844 L 492.582031 368.964844 C 492.582031 361.585938 495.335938 354.761719 500.132812 350.242188 C 511.742188 339.316406 518.40625 323.832031 518.40625 307.761719 C 518.40625 291.078125 511.339844 275.199219 499.027344 264.191406 C 486.890625 253.351562 471.324219 248.394531 455.128906 250.210938 C 428.703125 253.195312 407.652344 274.960938 405.070312 301.964844 C 403.339844 320.0625 409.78125 337.550781 422.742188 349.945312 C 427.738281 354.726562 430.609375 361.648438 430.609375 368.945312 L 430.609375 378.964844 C 430.609375 381.8125 432.921875 384.128906 435.773438 384.128906 L 487.417969 384.128906 C 490.269531 384.128906 492.582031 381.8125 492.582031 378.964844 Z M 482.253906 373.796875 L 440.9375 373.796875 L 440.9375 368.945312 C 440.9375 358.84375 436.902344 349.195312 429.875 342.476562 C 419.214844 332.285156 413.917969 317.882812 415.347656 302.953125 C 417.46875 280.785156 434.683594 262.921875 456.285156 260.480469 C 469.5 259.003906 482.230469 263.046875 492.144531 271.898438 C 502.265625 280.945312 508.074219 294.011719 508.074219 307.761719 C 508.074219 320.992188 502.601562 333.738281 493.050781 342.730469 C 486.1875 349.183594 482.253906 358.75 482.253906 368.964844 Z M 482.253906 373.796875 " fill-opacity="1" fill-rule="nonzero"/><path fill="#000000" d="M 435.773438 389.292969 L 487.417969 389.292969 L 487.417969 399.621094 L 435.773438 399.621094 Z M 435.773438 389.292969 " fill-opacity="1" fill-rule="nonzero"/><path fill="#000000" d="M 486.695312 412.957031 L 487.148438 411.585938 C 487.675781 410.011719 487.40625 408.28125 486.4375 406.933594 C 485.46875 405.582031 483.910156 404.785156 482.253906 404.785156 L 440.9375 404.785156 C 439.277344 404.785156 437.71875 405.582031 436.75 406.933594 C 435.777344 408.28125 435.515625 410.011719 436.035156 411.585938 L 436.492188 412.957031 C 440.011719 423.511719 449.859375 430.609375 460.992188 430.609375 L 462.199219 430.609375 C 473.328125 430.609375 483.175781 423.511719 486.695312 412.957031 Z M 462.199219 420.277344 L 460.992188 420.277344 C 456.472656 420.277344 452.3125 418.332031 449.4375 415.113281 L 473.753906 415.113281 C 470.875 418.332031 466.71875 420.277344 462.199219 420.277344 Z M 462.199219 420.277344 " fill-opacity="1" fill-rule="nonzero"/><path fill="#000000" d="M 378.964844 296.332031 L 394.457031 296.332031 L 394.457031 306.660156 L 378.964844 306.660156 Z M 378.964844 296.332031 " fill-opacity="1" fill-rule="nonzero"/><g clip-path="url(#dc09ae83a0)"><path fill="#000000" d="M 528.734375 296.332031 L 544.226562 296.332031 L 544.226562 306.660156 L 528.734375 306.660156 Z M 528.734375 296.332031 " fill-opacity="1" fill-rule="nonzero"/></g><path fill="#000000" d="M 399.511719 246.71875 L 406.8125 239.414062 L 417.769531 250.371094 L 410.464844 257.675781 Z M 399.511719 246.71875 " fill-opacity="1" fill-rule="nonzero"/><path fill="#000000" d="M 505.414062 250.371094 L 516.367188 239.414062 L 523.671875 246.71875 L 512.71875 257.675781 Z M 505.414062 250.371094 " fill-opacity="1" fill-rule="nonzero"/><g clip-path="url(#8920bbefe9)"><path fill="#000000" d="M 456.429688 224.027344 L 466.757812 224.027344 L 466.757812 239.523438 L 456.429688 239.523438 Z M 456.429688 224.027344 " fill-opacity="1" fill-rule="nonzero"/></g><g clip-path="url(#aad9a77a97)"><path fill="#000000" d="M 237.113281 544.050781 C 237.558594 544.171875 238.007812 544.226562 238.453125 544.226562 C 239.910156 544.226562 241.324219 543.605469 242.316406 542.492188 L 272.96875 507.929688 C 273.5 507.332031 273.886719 506.613281 274.09375 505.839844 L 306.167969 386.109375 C 309.855469 372.359375 301.664062 358.171875 287.914062 354.484375 C 274.144531 350.800781 259.972656 358.992188 256.285156 372.746094 L 224.203125 492.472656 C 223.992188 493.25 223.972656 494.058594 224.132812 494.84375 L 233.390625 540.101562 C 233.785156 542.015625 235.226562 543.546875 237.113281 544.050781 Z M 259.695312 507.328125 L 255.863281 511.648438 L 237.082031 506.621094 L 235.925781 500.957031 Z M 241.441406 527.90625 L 239.402344 517.929688 L 248.203125 520.289062 Z M 265.449219 498.175781 L 255.46875 495.5 L 282.199219 395.726562 L 292.179688 398.402344 Z M 285.238281 364.460938 C 293.492188 366.671875 298.402344 375.1875 296.191406 383.433594 L 294.855469 388.425781 L 264.921875 380.410156 L 266.257812 375.421875 C 268.472656 367.167969 276.984375 362.257812 285.238281 364.460938 Z M 262.25 390.382812 L 272.226562 393.058594 L 245.496094 492.828125 L 235.519531 490.15625 Z M 262.25 390.382812 " fill-opacity="1" fill-rule="nonzero"/></g><path fill="#000000" d="M 466.757812 477.089844 L 466.757812 461.59375 L 456.429688 461.59375 L 456.429688 477.089844 C 456.429688 497.023438 440.214844 513.238281 420.277344 513.238281 L 409.949219 513.238281 C 390.015625 513.238281 373.796875 497.023438 373.796875 477.089844 L 373.796875 384.128906 C 373.796875 358.5 352.945312 337.648438 327.316406 337.648438 L 322.152344 337.648438 L 322.152344 347.976562 L 327.316406 347.976562 C 347.253906 347.976562 363.46875 364.191406 363.46875 384.128906 L 363.46875 477.089844 C 363.46875 502.714844 384.324219 523.570312 409.949219 523.570312 L 420.277344 523.570312 C 445.90625 523.570312 466.757812 502.714844 466.757812 477.089844 Z M 466.757812 477.089844 " fill-opacity="1" fill-rule="nonzero"/><path fill="#000000" d="M 456.429688 440.9375 L 466.757812 440.9375 L 466.757812 451.265625 L 456.429688 451.265625 Z M 456.429688 440.9375 " fill-opacity="1" fill-rule="nonzero"/><path fill="#000000" d="M 488.199219 295.457031 L 473.082031 293.148438 L 466.273438 278.644531 C 465.421875 276.828125 463.597656 275.671875 461.59375 275.671875 C 459.589844 275.671875 457.769531 276.828125 456.921875 278.644531 L 450.113281 293.148438 L 434.996094 295.457031 C 433.082031 295.753906 431.496094 297.089844 430.882812 298.921875 C 430.265625 300.757812 430.730469 302.785156 432.078125 304.171875 L 443.167969 315.539062 L 440.539062 331.652344 C 440.21875 333.601562 441.046875 335.566406 442.660156 336.707031 C 444.277344 337.847656 446.40625 337.957031 448.136719 337.007812 L 461.59375 329.566406 L 475.054688 337 C 475.839844 337.429688 476.695312 337.648438 477.554688 337.648438 C 478.597656 337.648438 479.640625 337.328125 480.527344 336.703125 C 482.144531 335.5625 482.972656 333.597656 482.652344 331.644531 L 480.023438 315.53125 L 491.109375 304.164062 C 492.464844 302.78125 492.929688 300.757812 492.308594 298.917969 C 491.6875 297.078125 490.109375 295.753906 488.199219 295.457031 Z M 470.808594 310.191406 C 469.660156 311.363281 469.144531 313.011719 469.410156 314.628906 L 470.746094 322.820312 L 464.09375 319.144531 C 463.316406 318.714844 462.457031 318.496094 461.59375 318.496094 C 460.734375 318.496094 459.875 318.714844 459.09375 319.144531 L 452.445312 322.820312 L 453.78125 314.628906 C 454.042969 313.011719 453.527344 311.363281 452.382812 310.191406 L 446.488281 304.15625 L 454.394531 302.945312 C 456.101562 302.683594 457.5625 301.59375 458.289062 300.035156 L 461.59375 292.996094 L 464.898438 300.035156 C 465.632812 301.59375 467.09375 302.683594 468.792969 302.945312 L 476.703125 304.15625 Z M 470.808594 310.191406 " fill-opacity="1" fill-rule="nonzero"/><path fill="#000000" d="M 301.496094 337.648438 L 311.824219 337.648438 L 311.824219 347.976562 L 301.496094 347.976562 Z M 301.496094 337.648438 " fill-opacity="1" fill-rule="nonzero"/></svg>